<svg xmlns="http://www.w3.org/2000/svg" width="75" height="75"><rect x="0" y="0" width="100%" height="100%" fill="rgb(54,153,76)"></rect><circle cx="0" cy="0" r="12.5" fill="#ddd" opacity="0.02"></circle><circle cx="75" cy="0" r="12.5" fill="#ddd" opacity="0.02"></circle><circle cx="0" cy="75" r="12.5" fill="#ddd" opacity="0.02"></circle><circle cx="75" cy="75" r="12.5" fill="#ddd" opacity="0.02"></circle><circle cx="12.5" cy="0" r="12.5" fill="#ddd" opacity="0.12400000000000001"></circle><circle cx="12.5" cy="75" r="12.5" fill="#ddd" opacity="0.12400000000000001"></circle><circle cx="25" cy="0" r="12.5" fill="#222" opacity="0.028666666666666667"></circle><circle cx="25" cy="75" r="12.5" fill="#222" opacity="0.028666666666666667"></circle><circle cx="37.5" cy="0" r="12.5" fill="#ddd" opacity="0.05466666666666667"></circle><circle cx="37.5" cy="75" r="12.5" fill="#ddd" opacity="0.05466666666666667"></circle><circle cx="50" cy="0" r="12.5" fill="#222" opacity="0.046"></circle><circle cx="50" cy="75" r="12.5" fill="#222" opacity="0.046"></circle><circle cx="62.5" cy="0" r="12.5" fill="#222" opacity="0.15"></circle><circle cx="62.5" cy="75" r="12.5" fill="#222" opacity="0.15"></circle><circle cx="0" cy="12.5" r="12.5" fill="#ddd" opacity="0.14133333333333334"></circle><circle cx="75" cy="12.5" r="12.5" fill="#ddd" opacity="0.14133333333333334"></circle><circle cx="12.5" cy="12.5" r="12.5" fill="#ddd" opacity="0.12400000000000001"></circle><circle cx="25" cy="12.5" r="12.5" fill="#ddd" opacity="0.03733333333333333"></circle><circle cx="37.5" cy="12.5" r="12.5" fill="#ddd" opacity="0.03733333333333333"></circle><circle cx="50" cy="12.5" r="12.5" fill="#222" opacity="0.08066666666666666"></circle><circle cx="62.5" cy="12.5" r="12.5" fill="#ddd" opacity="0.02"></circle><circle cx="0" cy="25" r="12.5" fill="#222" opacity="0.08066666666666666"></circle><circle cx="75" cy="25" r="12.5" fill="#222" opacity="0.08066666666666666"></circle><circle cx="12.5" cy="25" r="12.5" fill="#222" opacity="0.028666666666666667"></circle><circle cx="25" cy="25" r="12.5" fill="#ddd" opacity="0.10666666666666667"></circle><circle cx="37.5" cy="25" r="12.5" fill="#222" opacity="0.028666666666666667"></circle><circle cx="50" cy="25" r="12.5" fill="#ddd" opacity="0.12400000000000001"></circle><circle cx="62.5" cy="25" r="12.5" fill="#ddd" opacity="0.07200000000000001"></circle><circle cx="0" cy="37.5" r="12.5" fill="#ddd" opacity="0.05466666666666667"></circle><circle cx="75" cy="37.5" r="12.5" fill="#ddd" opacity="0.05466666666666667"></circle><circle cx="12.5" cy="37.5" r="12.5" fill="#222" opacity="0.098"></circle><circle cx="25" cy="37.5" r="12.5" fill="#222" opacity="0.13266666666666665"></circle><circle cx="37.5" cy="37.5" r="12.5" fill="#ddd" opacity="0.12400000000000001"></circle><circle cx="50" cy="37.5" r="12.5" fill="#222" opacity="0.08066666666666666"></circle><circle cx="62.5" cy="37.5" r="12.5" fill="#222" opacity="0.11533333333333334"></circle><circle cx="0" cy="50" r="12.5" fill="#222" opacity="0.06333333333333334"></circle><circle cx="75" cy="50" r="12.5" fill="#222" opacity="0.06333333333333334"></circle><circle cx="12.5" cy="50" r="12.5" fill="#ddd" opacity="0.10666666666666667"></circle><circle cx="25" cy="50" r="12.5" fill="#ddd" opacity="0.14133333333333334"></circle><circle cx="37.5" cy="50" r="12.5" fill="#ddd" opacity="0.14133333333333334"></circle><circle cx="50" cy="50" r="12.5" fill="#222" opacity="0.08066666666666666"></circle><circle cx="62.5" cy="50" r="12.5" fill="#222" opacity="0.028666666666666667"></circle><circle cx="0" cy="62.5" r="12.5" fill="#222" opacity="0.11533333333333334"></circle><circle cx="75" cy="62.5" r="12.5" fill="#222" opacity="0.11533333333333334"></circle><circle cx="12.5" cy="62.5" r="12.5" fill="#222" opacity="0.13266666666666665"></circle><circle cx="25" cy="62.5" r="12.5" fill="#ddd" opacity="0.12400000000000001"></circle><circle cx="37.5" cy="62.5" r="12.5" fill="#ddd" opacity="0.10666666666666667"></circle><circle cx="50" cy="62.5" r="12.5" fill="#ddd" opacity="0.03733333333333333"></circle><circle cx="62.5" cy="62.5" r="12.5" fill="#ddd" opacity="0.05466666666666667"></circle></svg>