<svg xmlns="http://www.w3.org/2000/svg" width="123" height="142"><rect x="0" y="0" width="100%" height="100%" fill="rgb(147,60,67)"></rect><rect x="-13" y="-13" width="26" height="26" stroke="#000" stroke-opacity="0.02" fill="#222" fill-opacity="0.098" stroke-width="1"></rect><rect x="110.0333209967908" y="-13" width="26" height="26" stroke="#000" stroke-opacity="0.02" fill="#222" fill-opacity="0.098" stroke-width="1"></rect><rect x="-13" y="129.0666419935816" width="26" height="26" stroke="#000" stroke-opacity="0.02" fill="#222" fill-opacity="0.098" stroke-width="1"></rect><rect x="110.0333209967908" y="129.0666419935816" width="26" height="26" stroke="#000" stroke-opacity="0.02" fill="#222" fill-opacity="0.098" stroke-width="1"></rect><rect x="48.5166604983954" y="22.516660498395403" width="26" height="26" stroke="#000" stroke-opacity="0.02" fill="#ddd" fill-opacity="0.05466666666666667" stroke-width="1"></rect><rect x="-13" y="58.033320996790806" width="26" height="26" stroke="#000" stroke-opacity="0.02" fill="#ddd" fill-opacity="0.10666666666666667" stroke-width="1"></rect><rect x="110.0333209967908" y="58.033320996790806" width="26" height="26" stroke="#000" stroke-opacity="0.02" fill="#ddd" fill-opacity="0.10666666666666667" stroke-width="1"></rect><rect x="48.5166604983954" y="93.54998149518622" width="26" height="26" stroke="#000" stroke-opacity="0.02" fill="#ddd" fill-opacity="0.14133333333333334" stroke-width="1"></rect><polyline points="0,0,22.516660498395403,13,0,26,0,0" stroke="#000" stroke-opacity="0.02" fill="#ddd" fill-opacity="0.14133333333333334" stroke-width="1" transform="translate(13,-13) rotate(0,13,11.258330249197702)"></polyline><polyline points="0,0,22.516660498395403,13,0,26,0,0" stroke="#000" stroke-opacity="0.02" fill="#ddd" fill-opacity="0.14133333333333334" stroke-width="1" transform="translate(13,155.0666419935816) rotate(0,13,11.258330249197702) scale(1,-1)"></polyline><polyline points="0,0,22.516660498395403,13,0,26,0,0" stroke="#000" stroke-opacity="0.02" fill="#222" fill-opacity="0.11533333333333334" stroke-width="1" transform="translate(110.0333209967908,-13) rotate(0,13,11.258330249197702) scale(-1,1)"></polyline><polyline points="0,0,22.516660498395403,13,0,26,0,0" stroke="#000" stroke-opacity="0.02" fill="#222" fill-opacity="0.11533333333333334" stroke-width="1" transform="translate(110.0333209967908,155.0666419935816) rotate(0,13,11.258330249197702) scale(-1,-1)"></polyline><polyline points="0,0,22.516660498395403,13,0,26,0,0" stroke="#000" stroke-opacity="0.02" fill="#222" fill-opacity="0.046" stroke-width="1" transform="translate(74.5166604983954,22.516660498395403)"></polyline><polyline points="0,0,22.516660498395403,13,0,26,0,0" stroke="#000" stroke-opacity="0.02" fill="#ddd" fill-opacity="0.10666666666666667" stroke-width="1" transform="translate(48.5166604983954,22.516660498395403) scale(-1,1)"></polyline><polyline points="0,0,22.516660498395403,13,0,26,0,0" stroke="#000" stroke-opacity="0.02" fill="#ddd" fill-opacity="0.10666666666666667" stroke-width="1" transform="translate(74.5166604983954,119.54998149518622) scale(1,-1)"></polyline><polyline points="0,0,22.516660498395403,13,0,26,0,0" stroke="#000" stroke-opacity="0.02" fill="#222" fill-opacity="0.15" stroke-width="1" transform="translate(48.5166604983954,119.54998149518622) scale(-1,-1)"></polyline><polyline points="0,0,22.516660498395403,13,0,26,0,0" stroke="#000" stroke-opacity="0.02" fill="#ddd" fill-opacity="0.05466666666666667" stroke-width="1" transform="translate(13,58.033320996790806)"></polyline><polyline points="0,0,22.516660498395403,13,0,26,0,0" stroke="#000" stroke-opacity="0.02" fill="#222" fill-opacity="0.15" stroke-width="1" transform="translate(110.0333209967908,58.033320996790806) scale(-1,1)"></polyline><rect x="0" y="0" width="26" height="26" stroke="#000" stroke-opacity="0.02" fill="#ddd" fill-opacity="0.07200000000000001" stroke-width="1" transform="translate(13,13) rotate(-30,0,0)"></rect><rect x="0" y="0" width="26" height="26" stroke="#000" stroke-opacity="0.02" fill="#ddd" fill-opacity="0.14133333333333334" stroke-width="1" transform="scale(-1,1) translate(-110.0333209967908,13) rotate(-30,0,0)"></rect><rect x="0" y="0" width="26" height="26" stroke="#000" stroke-opacity="0.02" fill="#ddd" fill-opacity="0.02" stroke-width="1" transform="translate(13,32.033320996790806) rotate(30,0,26)"></rect><rect x="0" y="0" width="26" height="26" stroke="#000" stroke-opacity="0.02" fill="#222" fill-opacity="0.046" stroke-width="1" transform="scale(-1,1) translate(-110.0333209967908,32.033320996790806) rotate(30,0,26)"></rect><rect x="0" y="0" width="26" height="26" stroke="#000" stroke-opacity="0.02" fill="#ddd" fill-opacity="0.07200000000000001" stroke-width="1" transform="scale(1,-1) translate(13,-110.0333209967908) rotate(30,0,26)"></rect><rect x="0" y="0" width="26" height="26" stroke="#000" stroke-opacity="0.02" fill="#ddd" fill-opacity="0.02" stroke-width="1" transform="scale(-1,-1) translate(-110.0333209967908,-110.0333209967908) rotate(30,0,26)"></rect><rect x="0" y="0" width="26" height="26" stroke="#000" stroke-opacity="0.02" fill="#222" fill-opacity="0.046" stroke-width="1" transform="scale(1,-1) translate(13,-129.0666419935816) rotate(-30,0,0)"></rect><rect x="0" y="0" width="26" height="26" stroke="#000" stroke-opacity="0.02" fill="#ddd" fill-opacity="0.02" stroke-width="1" transform="scale(-1,-1) translate(-110.0333209967908,-129.0666419935816) rotate(-30,0,0)"></rect></svg>