<svg xmlns="http://www.w3.org/2000/svg" width="135" height="135"><rect x="0" y="0" width="100%" height="100%" fill="rgb(140,106,67)"></rect><g fill="#ddd" opacity="0.07200000000000001" transform="translate(-22.631999999999998,-22.631999999999998) rotate(45,22.631999999999998,22.631999999999998)"><rect x="16" y="0" width="16" height="48"></rect><rect x="0" y="16" width="48" height="16"></rect></g><g fill="#ddd" opacity="0.07200000000000001" transform="translate(113.15999999999997,-22.631999999999998) rotate(45,22.631999999999998,22.631999999999998)"><rect x="16" y="0" width="16" height="48"></rect><rect x="0" y="16" width="48" height="16"></rect></g><g fill="#ddd" opacity="0.07200000000000001" transform="translate(-22.631999999999998,113.15999999999997) rotate(45,22.631999999999998,22.631999999999998)"><rect x="16" y="0" width="16" height="48"></rect><rect x="0" y="16" width="48" height="16"></rect></g><g fill="#ddd" opacity="0.07200000000000001" transform="translate(113.15999999999997,113.15999999999997) rotate(45,22.631999999999998,22.631999999999998)"><rect x="16" y="0" width="16" height="48"></rect><rect x="0" y="16" width="48" height="16"></rect></g><g fill="#222" opacity="0.028666666666666667" transform="translate(0,-11.315999999999999) rotate(45,22.631999999999998,22.631999999999998)"><rect x="16" y="0" width="16" height="48"></rect><rect x="0" y="16" width="48" height="16"></rect></g><g fill="#222" opacity="0.028666666666666667" transform="translate(0,124.47599999999994) rotate(45,22.631999999999998,22.631999999999998)"><rect x="16" y="0" width="16" height="48"></rect><rect x="0" y="16" width="48" height="16"></rect></g><g fill="#222" opacity="0.08066666666666666" transform="translate(22.631999999999998,-22.631999999999998) rotate(45,22.631999999999998,22.631999999999998)"><rect x="16" y="0" width="16" height="48"></rect><rect x="0" y="16" width="48" height="16"></rect></g><g fill="#222" opacity="0.08066666666666666" transform="translate(22.631999999999998,113.15999999999997) rotate(45,22.631999999999998,22.631999999999998)"><rect x="16" y="0" width="16" height="48"></rect><rect x="0" y="16" width="48" height="16"></rect></g><g fill="#222" opacity="0.046" transform="translate(45.26399999999999,-11.315999999999999) rotate(45,22.631999999999998,22.631999999999998)"><rect x="16" y="0" width="16" height="48"></rect><rect x="0" y="16" width="48" height="16"></rect></g><g fill="#222" opacity="0.046" transform="translate(45.26399999999999,124.47599999999994) rotate(45,22.631999999999998,22.631999999999998)"><rect x="16" y="0" width="16" height="48"></rect><rect x="0" y="16" width="48" height="16"></rect></g><g fill="#ddd" opacity="0.12400000000000001" transform="translate(67.89599999999999,-22.631999999999998) rotate(45,22.631999999999998,22.631999999999998)"><rect x="16" y="0" width="16" height="48"></rect><rect x="0" y="16" width="48" height="16"></rect></g><g fill="#ddd" opacity="0.12400000000000001" transform="translate(67.89599999999999,113.15999999999997) rotate(45,22.631999999999998,22.631999999999998)"><rect x="16" y="0" width="16" height="48"></rect><rect x="0" y="16" width="48" height="16"></rect></g><g fill="#ddd" opacity="0.05466666666666667" transform="translate(90.52799999999999,-11.315999999999999) rotate(45,22.631999999999998,22.631999999999998)"><rect x="16" y="0" width="16" height="48"></rect><rect x="0" y="16" width="48" height="16"></rect></g><g fill="#ddd" opacity="0.05466666666666667" transform="translate(90.52799999999999,124.47599999999994) rotate(45,22.631999999999998,22.631999999999998)"><rect x="16" y="0" width="16" height="48"></rect><rect x="0" y="16" width="48" height="16"></rect></g><g fill="#ddd" opacity="0.08933333333333333" transform="translate(-22.631999999999998,0) rotate(45,22.631999999999998,22.631999999999998)"><rect x="16" y="0" width="16" height="48"></rect><rect x="0" y="16" width="48" height="16"></rect></g><g fill="#ddd" opacity="0.08933333333333333" transform="translate(113.15999999999997,0) rotate(45,22.631999999999998,22.631999999999998)"><rect x="16" y="0" width="16" height="48"></rect><rect x="0" y="16" width="48" height="16"></rect></g><g fill="#222" opacity="0.15" transform="translate(0,11.315999999999995) rotate(45,22.631999999999998,22.631999999999998)"><rect x="16" y="0" width="16" height="48"></rect><rect x="0" y="16" width="48" height="16"></rect></g><g fill="#222" opacity="0.098" transform="translate(22.631999999999998,0) rotate(45,22.631999999999998,22.631999999999998)"><rect x="16" y="0" width="16" height="48"></rect><rect x="0" y="16" width="48" height="16"></rect></g><g fill="#ddd" opacity="0.03733333333333333" transform="translate(45.26399999999999,11.315999999999995) rotate(45,22.631999999999998,22.631999999999998)"><rect x="16" y="0" width="16" height="48"></rect><rect x="0" y="16" width="48" height="16"></rect></g><g fill="#ddd" opacity="0.12400000000000001" transform="translate(67.89599999999999,0) rotate(45,22.631999999999998,22.631999999999998)"><rect x="16" y="0" width="16" height="48"></rect><rect x="0" y="16" width="48" height="16"></rect></g><g fill="#222" opacity="0.13266666666666665" transform="translate(90.52799999999999,11.315999999999995) rotate(45,22.631999999999998,22.631999999999998)"><rect x="16" y="0" width="16" height="48"></rect><rect x="0" y="16" width="48" height="16"></rect></g><g fill="#222" opacity="0.098" transform="translate(-22.631999999999998,22.63199999999999) rotate(45,22.631999999999998,22.631999999999998)"><rect x="16" y="0" width="16" height="48"></rect><rect x="0" y="16" width="48" height="16"></rect></g><g fill="#222" opacity="0.098" transform="translate(113.15999999999997,22.63199999999999) rotate(45,22.631999999999998,22.631999999999998)"><rect x="16" y="0" width="16" height="48"></rect><rect x="0" y="16" width="48" height="16"></rect></g><g fill="#ddd" opacity="0.05466666666666667" transform="translate(0,33.94799999999999) rotate(45,22.631999999999998,22.631999999999998)"><rect x="16" y="0" width="16" height="48"></rect><rect x="0" y="16" width="48" height="16"></rect></g><g fill="#ddd" opacity="0.14133333333333334" transform="translate(22.631999999999998,22.63199999999999) rotate(45,22.631999999999998,22.631999999999998)"><rect x="16" y="0" width="16" height="48"></rect><rect x="0" y="16" width="48" height="16"></rect></g><g fill="#222" opacity="0.098" transform="translate(45.26399999999999,33.94799999999999) rotate(45,22.631999999999998,22.631999999999998)"><rect x="16" y="0" width="16" height="48"></rect><rect x="0" y="16" width="48" height="16"></rect></g><g fill="#ddd" opacity="0.14133333333333334" transform="translate(67.89599999999999,22.63199999999999) rotate(45,22.631999999999998,22.631999999999998)"><rect x="16" y="0" width="16" height="48"></rect><rect x="0" y="16" width="48" height="16"></rect></g><g fill="#222" opacity="0.08066666666666666" transform="translate(90.52799999999999,33.94799999999999) rotate(45,22.631999999999998,22.631999999999998)"><rect x="16" y="0" width="16" height="48"></rect><rect x="0" y="16" width="48" height="16"></rect></g><g fill="#222" opacity="0.06333333333333334" transform="translate(-22.631999999999998,45.26399999999998) rotate(45,22.631999999999998,22.631999999999998)"><rect x="16" y="0" width="16" height="48"></rect><rect x="0" y="16" width="48" height="16"></rect></g><g fill="#222" opacity="0.06333333333333334" transform="translate(113.15999999999997,45.26399999999998) rotate(45,22.631999999999998,22.631999999999998)"><rect x="16" y="0" width="16" height="48"></rect><rect x="0" y="16" width="48" height="16"></rect></g><g fill="#222" opacity="0.08066666666666666" transform="translate(0,56.579999999999984) rotate(45,22.631999999999998,22.631999999999998)"><rect x="16" y="0" width="16" height="48"></rect><rect x="0" y="16" width="48" height="16"></rect></g><g fill="#222" opacity="0.046" transform="translate(22.631999999999998,45.26399999999998) rotate(45,22.631999999999998,22.631999999999998)"><rect x="16" y="0" width="16" height="48"></rect><rect x="0" y="16" width="48" height="16"></rect></g><g fill="#222" opacity="0.028666666666666667" transform="translate(45.26399999999999,56.579999999999984) rotate(45,22.631999999999998,22.631999999999998)"><rect x="16" y="0" width="16" height="48"></rect><rect x="0" y="16" width="48" height="16"></rect></g><g fill="#222" opacity="0.13266666666666665" transform="translate(67.89599999999999,45.26399999999998) rotate(45,22.631999999999998,22.631999999999998)"><rect x="16" y="0" width="16" height="48"></rect><rect x="0" y="16" width="48" height="16"></rect></g><g fill="#ddd" opacity="0.08933333333333333" transform="translate(90.52799999999999,56.579999999999984) rotate(45,22.631999999999998,22.631999999999998)"><rect x="16" y="0" width="16" height="48"></rect><rect x="0" y="16" width="48" height="16"></rect></g><g fill="#222" opacity="0.028666666666666667" transform="translate(-22.631999999999998,67.89599999999999) rotate(45,22.631999999999998,22.631999999999998)"><rect x="16" y="0" width="16" height="48"></rect><rect x="0" y="16" width="48" height="16"></rect></g><g fill="#222" opacity="0.028666666666666667" transform="translate(113.15999999999997,67.89599999999999) rotate(45,22.631999999999998,22.631999999999998)"><rect x="16" y="0" width="16" height="48"></rect><rect x="0" y="16" width="48" height="16"></rect></g><g fill="#ddd" opacity="0.14133333333333334" transform="translate(0,79.21199999999999) rotate(45,22.631999999999998,22.631999999999998)"><rect x="16" y="0" width="16" height="48"></rect><rect x="0" y="16" width="48" height="16"></rect></g><g fill="#222" opacity="0.15" transform="translate(22.631999999999998,67.89599999999999) rotate(45,22.631999999999998,22.631999999999998)"><rect x="16" y="0" width="16" height="48"></rect><rect x="0" y="16" width="48" height="16"></rect></g><g fill="#ddd" opacity="0.05466666666666667" transform="translate(45.26399999999999,79.21199999999999) rotate(45,22.631999999999998,22.631999999999998)"><rect x="16" y="0" width="16" height="48"></rect><rect x="0" y="16" width="48" height="16"></rect></g><g fill="#ddd" opacity="0.10666666666666667" transform="translate(67.89599999999999,67.89599999999999) rotate(45,22.631999999999998,22.631999999999998)"><rect x="16" y="0" width="16" height="48"></rect><rect x="0" y="16" width="48" height="16"></rect></g><g fill="#ddd" opacity="0.02" transform="translate(90.52799999999999,79.21199999999999) rotate(45,22.631999999999998,22.631999999999998)"><rect x="16" y="0" width="16" height="48"></rect><rect x="0" y="16" width="48" height="16"></rect></g><g fill="#222" opacity="0.13266666666666665" transform="translate(-22.631999999999998,90.52799999999999) rotate(45,22.631999999999998,22.631999999999998)"><rect x="16" y="0" width="16" height="48"></rect><rect x="0" y="16" width="48" height="16"></rect></g><g fill="#222" opacity="0.13266666666666665" transform="translate(113.15999999999997,90.52799999999999) rotate(45,22.631999999999998,22.631999999999998)"><rect x="16" y="0" width="16" height="48"></rect><rect x="0" y="16" width="48" height="16"></rect></g><g fill="#222" opacity="0.13266666666666665" transform="translate(-22.631999999999998,-45.26399999999998) rotate(45,22.631999999999998,22.631999999999998)"><rect x="16" y="0" width="16" height="48"></rect><rect x="0" y="16" width="48" height="16"></rect></g><g fill="#ddd" opacity="0.05466666666666667" transform="translate(0,101.844) rotate(45,22.631999999999998,22.631999999999998)"><rect x="16" y="0" width="16" height="48"></rect><rect x="0" y="16" width="48" height="16"></rect></g><g fill="#ddd" opacity="0.05466666666666667" transform="translate(0,-33.94799999999998) rotate(45,22.631999999999998,22.631999999999998)"><rect x="16" y="0" width="16" height="48"></rect><rect x="0" y="16" width="48" height="16"></rect></g><g fill="#222" opacity="0.11533333333333334" transform="translate(22.631999999999998,90.52799999999999) rotate(45,22.631999999999998,22.631999999999998)"><rect x="16" y="0" width="16" height="48"></rect><rect x="0" y="16" width="48" height="16"></rect></g><g fill="#222" opacity="0.11533333333333334" transform="translate(22.631999999999998,-45.26399999999998) rotate(45,22.631999999999998,22.631999999999998)"><rect x="16" y="0" width="16" height="48"></rect><rect x="0" y="16" width="48" height="16"></rect></g><g fill="#ddd" opacity="0.03733333333333333" transform="translate(45.26399999999999,101.844) rotate(45,22.631999999999998,22.631999999999998)"><rect x="16" y="0" width="16" height="48"></rect><rect x="0" y="16" width="48" height="16"></rect></g><g fill="#ddd" opacity="0.03733333333333333" transform="translate(45.26399999999999,-33.94799999999998) rotate(45,22.631999999999998,22.631999999999998)"><rect x="16" y="0" width="16" height="48"></rect><rect x="0" y="16" width="48" height="16"></rect></g><g fill="#222" opacity="0.13266666666666665" transform="translate(67.89599999999999,90.52799999999999) rotate(45,22.631999999999998,22.631999999999998)"><rect x="16" y="0" width="16" height="48"></rect><rect x="0" y="16" width="48" height="16"></rect></g><g fill="#222" opacity="0.13266666666666665" transform="translate(67.89599999999999,-45.26399999999998) rotate(45,22.631999999999998,22.631999999999998)"><rect x="16" y="0" width="16" height="48"></rect><rect x="0" y="16" width="48" height="16"></rect></g><g fill="#222" opacity="0.028666666666666667" transform="translate(90.52799999999999,101.844) rotate(45,22.631999999999998,22.631999999999998)"><rect x="16" y="0" width="16" height="48"></rect><rect x="0" y="16" width="48" height="16"></rect></g><g fill="#222" opacity="0.028666666666666667" transform="translate(90.52799999999999,-33.94799999999998) rotate(45,22.631999999999998,22.631999999999998)"><rect x="16" y="0" width="16" height="48"></rect><rect x="0" y="16" width="48" height="16"></rect></g></svg>