<svg xmlns="http://www.w3.org/2000/svg" width="172" height="142"><rect x="0" y="0" width="100%" height="100%" fill="rgb(136,76,71)"></rect><polyline points="14.333333333333334,0,28.666666666666668,23.666666666666668,14.333333333333334,47.333333333333336,0,23.666666666666668" fill="#222" fill-opacity="0.08066666666666666" stroke="#000" stroke-opacity="0.02" transform="translate(-14.333333333333334,-23.666666666666668)"></polyline><polyline points="14.333333333333334,0,28.666666666666668,23.666666666666668,14.333333333333334,47.333333333333336,0,23.666666666666668" fill="#222" fill-opacity="0.08066666666666666" stroke="#000" stroke-opacity="0.02" transform="translate(157.66666666666666,-23.666666666666668)"></polyline><polyline points="14.333333333333334,0,28.666666666666668,23.666666666666668,14.333333333333334,47.333333333333336,0,23.666666666666668" fill="#222" fill-opacity="0.08066666666666666" stroke="#000" stroke-opacity="0.02" transform="translate(-14.333333333333334,118.33333333333333)"></polyline><polyline points="14.333333333333334,0,28.666666666666668,23.666666666666668,14.333333333333334,47.333333333333336,0,23.666666666666668" fill="#222" fill-opacity="0.08066666666666666" stroke="#000" stroke-opacity="0.02" transform="translate(157.66666666666666,118.33333333333333)"></polyline><polyline points="14.333333333333334,0,28.666666666666668,23.666666666666668,14.333333333333334,47.333333333333336,0,23.666666666666668" fill="#ddd" fill-opacity="0.14133333333333334" stroke="#000" stroke-opacity="0.02" transform="translate(14.333333333333334,-23.666666666666668)"></polyline><polyline points="14.333333333333334,0,28.666666666666668,23.666666666666668,14.333333333333334,47.333333333333336,0,23.666666666666668" fill="#ddd" fill-opacity="0.14133333333333334" stroke="#000" stroke-opacity="0.02" transform="translate(14.333333333333334,118.33333333333333)"></polyline><polyline points="14.333333333333334,0,28.666666666666668,23.666666666666668,14.333333333333334,47.333333333333336,0,23.666666666666668" fill="#222" fill-opacity="0.06333333333333334" stroke="#000" stroke-opacity="0.02" transform="translate(43,-23.666666666666668)"></polyline><polyline points="14.333333333333334,0,28.666666666666668,23.666666666666668,14.333333333333334,47.333333333333336,0,23.666666666666668" fill="#222" fill-opacity="0.06333333333333334" stroke="#000" stroke-opacity="0.02" transform="translate(43,118.33333333333333)"></polyline><polyline points="14.333333333333334,0,28.666666666666668,23.666666666666668,14.333333333333334,47.333333333333336,0,23.666666666666668" fill="#222" fill-opacity="0.13266666666666665" stroke="#000" stroke-opacity="0.02" transform="translate(71.66666666666667,-23.666666666666668)"></polyline><polyline points="14.333333333333334,0,28.666666666666668,23.666666666666668,14.333333333333334,47.333333333333336,0,23.666666666666668" fill="#222" fill-opacity="0.13266666666666665" stroke="#000" stroke-opacity="0.02" transform="translate(71.66666666666667,118.33333333333333)"></polyline><polyline points="14.333333333333334,0,28.666666666666668,23.666666666666668,14.333333333333334,47.333333333333336,0,23.666666666666668" fill="#ddd" fill-opacity="0.03733333333333333" stroke="#000" stroke-opacity="0.02" transform="translate(100.33333333333334,-23.666666666666668)"></polyline><polyline points="14.333333333333334,0,28.666666666666668,23.666666666666668,14.333333333333334,47.333333333333336,0,23.666666666666668" fill="#ddd" fill-opacity="0.03733333333333333" stroke="#000" stroke-opacity="0.02" transform="translate(100.33333333333334,118.33333333333333)"></polyline><polyline points="14.333333333333334,0,28.666666666666668,23.666666666666668,14.333333333333334,47.333333333333336,0,23.666666666666668" fill="#ddd" fill-opacity="0.02" stroke="#000" stroke-opacity="0.02" transform="translate(129,-23.666666666666668)"></polyline><polyline points="14.333333333333334,0,28.666666666666668,23.666666666666668,14.333333333333334,47.333333333333336,0,23.666666666666668" fill="#ddd" fill-opacity="0.02" stroke="#000" stroke-opacity="0.02" transform="translate(129,118.33333333333333)"></polyline><polyline points="14.333333333333334,0,28.666666666666668,23.666666666666668,14.333333333333334,47.333333333333336,0,23.666666666666668" fill="#ddd" fill-opacity="0.12400000000000001" stroke="#000" stroke-opacity="0.02" transform="translate(0,0)"></polyline><polyline points="14.333333333333334,0,28.666666666666668,23.666666666666668,14.333333333333334,47.333333333333336,0,23.666666666666668" fill="#ddd" fill-opacity="0.12400000000000001" stroke="#000" stroke-opacity="0.02" transform="translate(172,0)"></polyline><polyline points="14.333333333333334,0,28.666666666666668,23.666666666666668,14.333333333333334,47.333333333333336,0,23.666666666666668" fill="#222" fill-opacity="0.08066666666666666" stroke="#000" stroke-opacity="0.02" transform="translate(28.666666666666668,0)"></polyline><polyline points="14.333333333333334,0,28.666666666666668,23.666666666666668,14.333333333333334,47.333333333333336,0,23.666666666666668" fill="#222" fill-opacity="0.046" stroke="#000" stroke-opacity="0.02" transform="translate(57.333333333333336,0)"></polyline><polyline points="14.333333333333334,0,28.666666666666668,23.666666666666668,14.333333333333334,47.333333333333336,0,23.666666666666668" fill="#ddd" fill-opacity="0.14133333333333334" stroke="#000" stroke-opacity="0.02" transform="translate(86,0)"></polyline><polyline points="14.333333333333334,0,28.666666666666668,23.666666666666668,14.333333333333334,47.333333333333336,0,23.666666666666668" fill="#ddd" fill-opacity="0.03733333333333333" stroke="#000" stroke-opacity="0.02" transform="translate(114.66666666666667,0)"></polyline><polyline points="14.333333333333334,0,28.666666666666668,23.666666666666668,14.333333333333334,47.333333333333336,0,23.666666666666668" fill="#ddd" fill-opacity="0.12400000000000001" stroke="#000" stroke-opacity="0.02" transform="translate(143.33333333333334,0)"></polyline><polyline points="14.333333333333334,0,28.666666666666668,23.666666666666668,14.333333333333334,47.333333333333336,0,23.666666666666668" fill="#ddd" fill-opacity="0.07200000000000001" stroke="#000" stroke-opacity="0.02" transform="translate(-14.333333333333334,23.666666666666668)"></polyline><polyline points="14.333333333333334,0,28.666666666666668,23.666666666666668,14.333333333333334,47.333333333333336,0,23.666666666666668" fill="#ddd" fill-opacity="0.07200000000000001" stroke="#000" stroke-opacity="0.02" transform="translate(157.66666666666666,23.666666666666668)"></polyline><polyline points="14.333333333333334,0,28.666666666666668,23.666666666666668,14.333333333333334,47.333333333333336,0,23.666666666666668" fill="#222" fill-opacity="0.11533333333333334" stroke="#000" stroke-opacity="0.02" transform="translate(14.333333333333334,23.666666666666668)"></polyline><polyline points="14.333333333333334,0,28.666666666666668,23.666666666666668,14.333333333333334,47.333333333333336,0,23.666666666666668" fill="#222" fill-opacity="0.15" stroke="#000" stroke-opacity="0.02" transform="translate(43,23.666666666666668)"></polyline><polyline points="14.333333333333334,0,28.666666666666668,23.666666666666668,14.333333333333334,47.333333333333336,0,23.666666666666668" fill="#222" fill-opacity="0.13266666666666665" stroke="#000" stroke-opacity="0.02" transform="translate(71.66666666666667,23.666666666666668)"></polyline><polyline points="14.333333333333334,0,28.666666666666668,23.666666666666668,14.333333333333334,47.333333333333336,0,23.666666666666668" fill="#222" fill-opacity="0.08066666666666666" stroke="#000" stroke-opacity="0.02" transform="translate(100.33333333333334,23.666666666666668)"></polyline><polyline points="14.333333333333334,0,28.666666666666668,23.666666666666668,14.333333333333334,47.333333333333336,0,23.666666666666668" fill="#222" fill-opacity="0.11533333333333334" stroke="#000" stroke-opacity="0.02" transform="translate(129,23.666666666666668)"></polyline><polyline points="14.333333333333334,0,28.666666666666668,23.666666666666668,14.333333333333334,47.333333333333336,0,23.666666666666668" fill="#ddd" fill-opacity="0.12400000000000001" stroke="#000" stroke-opacity="0.02" transform="translate(0,47.33333333333333)"></polyline><polyline points="14.333333333333334,0,28.666666666666668,23.666666666666668,14.333333333333334,47.333333333333336,0,23.666666666666668" fill="#ddd" fill-opacity="0.12400000000000001" stroke="#000" stroke-opacity="0.02" transform="translate(172,47.33333333333333)"></polyline><polyline points="14.333333333333334,0,28.666666666666668,23.666666666666668,14.333333333333334,47.333333333333336,0,23.666666666666668" fill="#ddd" fill-opacity="0.14133333333333334" stroke="#000" stroke-opacity="0.02" transform="translate(28.666666666666668,47.33333333333333)"></polyline><polyline points="14.333333333333334,0,28.666666666666668,23.666666666666668,14.333333333333334,47.333333333333336,0,23.666666666666668" fill="#ddd" fill-opacity="0.02" stroke="#000" stroke-opacity="0.02" transform="translate(57.333333333333336,47.33333333333333)"></polyline><polyline points="14.333333333333334,0,28.666666666666668,23.666666666666668,14.333333333333334,47.333333333333336,0,23.666666666666668" fill="#ddd" fill-opacity="0.07200000000000001" stroke="#000" stroke-opacity="0.02" transform="translate(86,47.33333333333333)"></polyline><polyline points="14.333333333333334,0,28.666666666666668,23.666666666666668,14.333333333333334,47.333333333333336,0,23.666666666666668" fill="#ddd" fill-opacity="0.07200000000000001" stroke="#000" stroke-opacity="0.02" transform="translate(114.66666666666667,47.33333333333333)"></polyline><polyline points="14.333333333333334,0,28.666666666666668,23.666666666666668,14.333333333333334,47.333333333333336,0,23.666666666666668" fill="#222" fill-opacity="0.046" stroke="#000" stroke-opacity="0.02" transform="translate(143.33333333333334,47.33333333333333)"></polyline><polyline points="14.333333333333334,0,28.666666666666668,23.666666666666668,14.333333333333334,47.333333333333336,0,23.666666666666668" fill="#ddd" fill-opacity="0.03733333333333333" stroke="#000" stroke-opacity="0.02" transform="translate(-14.333333333333334,71)"></polyline><polyline points="14.333333333333334,0,28.666666666666668,23.666666666666668,14.333333333333334,47.333333333333336,0,23.666666666666668" fill="#ddd" fill-opacity="0.03733333333333333" stroke="#000" stroke-opacity="0.02" transform="translate(157.66666666666666,71)"></polyline><polyline points="14.333333333333334,0,28.666666666666668,23.666666666666668,14.333333333333334,47.333333333333336,0,23.666666666666668" fill="#222" fill-opacity="0.08066666666666666" stroke="#000" stroke-opacity="0.02" transform="translate(14.333333333333334,71)"></polyline><polyline points="14.333333333333334,0,28.666666666666668,23.666666666666668,14.333333333333334,47.333333333333336,0,23.666666666666668" fill="#ddd" fill-opacity="0.05466666666666667" stroke="#000" stroke-opacity="0.02" transform="translate(43,71)"></polyline><polyline points="14.333333333333334,0,28.666666666666668,23.666666666666668,14.333333333333334,47.333333333333336,0,23.666666666666668" fill="#222" fill-opacity="0.15" stroke="#000" stroke-opacity="0.02" transform="translate(71.66666666666667,71)"></polyline><polyline points="14.333333333333334,0,28.666666666666668,23.666666666666668,14.333333333333334,47.333333333333336,0,23.666666666666668" fill="#ddd" fill-opacity="0.08933333333333333" stroke="#000" stroke-opacity="0.02" transform="translate(100.33333333333334,71)"></polyline><polyline points="14.333333333333334,0,28.666666666666668,23.666666666666668,14.333333333333334,47.333333333333336,0,23.666666666666668" fill="#222" fill-opacity="0.15" stroke="#000" stroke-opacity="0.02" transform="translate(129,71)"></polyline><polyline points="14.333333333333334,0,28.666666666666668,23.666666666666668,14.333333333333334,47.333333333333336,0,23.666666666666668" fill="#ddd" fill-opacity="0.02" stroke="#000" stroke-opacity="0.02" transform="translate(0,94.66666666666667)"></polyline><polyline points="14.333333333333334,0,28.666666666666668,23.666666666666668,14.333333333333334,47.333333333333336,0,23.666666666666668" fill="#ddd" fill-opacity="0.02" stroke="#000" stroke-opacity="0.02" transform="translate(172,94.66666666666667)"></polyline><polyline points="14.333333333333334,0,28.666666666666668,23.666666666666668,14.333333333333334,47.333333333333336,0,23.666666666666668" fill="#ddd" fill-opacity="0.07200000000000001" stroke="#000" stroke-opacity="0.02" transform="translate(28.666666666666668,94.66666666666667)"></polyline><polyline points="14.333333333333334,0,28.666666666666668,23.666666666666668,14.333333333333334,47.333333333333336,0,23.666666666666668" fill="#ddd" fill-opacity="0.12400000000000001" stroke="#000" stroke-opacity="0.02" transform="translate(57.333333333333336,94.66666666666667)"></polyline><polyline points="14.333333333333334,0,28.666666666666668,23.666666666666668,14.333333333333334,47.333333333333336,0,23.666666666666668" fill="#ddd" fill-opacity="0.03733333333333333" stroke="#000" stroke-opacity="0.02" transform="translate(86,94.66666666666667)"></polyline><polyline points="14.333333333333334,0,28.666666666666668,23.666666666666668,14.333333333333334,47.333333333333336,0,23.666666666666668" fill="#222" fill-opacity="0.11533333333333334" stroke="#000" stroke-opacity="0.02" transform="translate(114.66666666666667,94.66666666666667)"></polyline><polyline points="14.333333333333334,0,28.666666666666668,23.666666666666668,14.333333333333334,47.333333333333336,0,23.666666666666668" fill="#ddd" fill-opacity="0.02" stroke="#000" stroke-opacity="0.02" transform="translate(143.33333333333334,94.66666666666667)"></polyline></svg>