<svg xmlns="http://www.w3.org/2000/svg" width="360" height="360"><rect x="0" y="0" width="100%" height="100%" fill="rgb(50,157,144)"></rect><circle cx="30" cy="30" r="25" fill="none" stroke="#ddd" opacity="0.12400000000000001" stroke-width="10px"></circle><circle cx="30" cy="30" r="12.5" fill="#222" fill-opacity="0.028666666666666667"></circle><circle cx="90" cy="30" r="25" fill="none" stroke="#222" opacity="0.028666666666666667" stroke-width="10px"></circle><circle cx="90" cy="30" r="12.5" fill="#222" fill-opacity="0.098"></circle><circle cx="150" cy="30" r="25" fill="none" stroke="#222" opacity="0.06333333333333334" stroke-width="10px"></circle><circle cx="150" cy="30" r="12.5" fill="#222" fill-opacity="0.06333333333333334"></circle><circle cx="210" cy="30" r="25" fill="none" stroke="#ddd" opacity="0.05466666666666667" stroke-width="10px"></circle><circle cx="210" cy="30" r="12.5" fill="#222" fill-opacity="0.098"></circle><circle cx="270" cy="30" r="25" fill="none" stroke="#ddd" opacity="0.02" stroke-width="10px"></circle><circle cx="270" cy="30" r="12.5" fill="#222" fill-opacity="0.028666666666666667"></circle><circle cx="330" cy="30" r="25" fill="none" stroke="#222" opacity="0.046" stroke-width="10px"></circle><circle cx="330" cy="30" r="12.5" fill="#222" fill-opacity="0.06333333333333334"></circle><circle cx="30" cy="90" r="25" fill="none" stroke="#222" opacity="0.08066666666666666" stroke-width="10px"></circle><circle cx="30" cy="90" r="12.5" fill="#222" fill-opacity="0.098"></circle><circle cx="90" cy="90" r="25" fill="none" stroke="#222" opacity="0.15" stroke-width="10px"></circle><circle cx="90" cy="90" r="12.5" fill="#ddd" fill-opacity="0.08933333333333333"></circle><circle cx="150" cy="90" r="25" fill="none" stroke="#222" opacity="0.098" stroke-width="10px"></circle><circle cx="150" cy="90" r="12.5" fill="#222" fill-opacity="0.046"></circle><circle cx="210" cy="90" r="25" fill="none" stroke="#ddd" opacity="0.12400000000000001" stroke-width="10px"></circle><circle cx="210" cy="90" r="12.5" fill="#222" fill-opacity="0.15"></circle><circle cx="270" cy="90" r="25" fill="none" stroke="#ddd" opacity="0.08933333333333333" stroke-width="10px"></circle><circle cx="270" cy="90" r="12.5" fill="#222" fill-opacity="0.098"></circle><circle cx="330" cy="90" r="25" fill="none" stroke="#ddd" opacity="0.12400000000000001" stroke-width="10px"></circle><circle cx="330" cy="90" r="12.5" fill="#ddd" fill-opacity="0.07200000000000001"></circle><circle cx="30" cy="150" r="25" fill="none" stroke="#ddd" opacity="0.10666666666666667" stroke-width="10px"></circle><circle cx="30" cy="150" r="12.5" fill="#ddd" fill-opacity="0.08933333333333333"></circle><circle cx="90" cy="150" r="25" fill="none" stroke="#ddd" opacity="0.14133333333333334" stroke-width="10px"></circle><circle cx="90" cy="150" r="12.5" fill="#222" fill-opacity="0.15"></circle><circle cx="150" cy="150" r="25" fill="none" stroke="#ddd" opacity="0.08933333333333333" stroke-width="10px"></circle><circle cx="150" cy="150" r="12.5" fill="#222" fill-opacity="0.11533333333333334"></circle><circle cx="210" cy="150" r="25" fill="none" stroke="#222" opacity="0.06333333333333334" stroke-width="10px"></circle><circle cx="210" cy="150" r="12.5" fill="#222" fill-opacity="0.15"></circle><circle cx="270" cy="150" r="25" fill="none" stroke="#222" opacity="0.11533333333333334" stroke-width="10px"></circle><circle cx="270" cy="150" r="12.5" fill="#222" fill-opacity="0.15"></circle><circle cx="330" cy="150" r="25" fill="none" stroke="#ddd" opacity="0.10666666666666667" stroke-width="10px"></circle><circle cx="330" cy="150" r="12.5" fill="#ddd" fill-opacity="0.12400000000000001"></circle><circle cx="30" cy="210" r="25" fill="none" stroke="#ddd" opacity="0.03733333333333333" stroke-width="10px"></circle><circle cx="30" cy="210" r="12.5" fill="#ddd" fill-opacity="0.12400000000000001"></circle><circle cx="90" cy="210" r="25" fill="none" stroke="#ddd" opacity="0.07200000000000001" stroke-width="10px"></circle><circle cx="90" cy="210" r="12.5" fill="#ddd" fill-opacity="0.03733333333333333"></circle><circle cx="150" cy="210" r="25" fill="none" stroke="#ddd" opacity="0.03733333333333333" stroke-width="10px"></circle><circle cx="150" cy="210" r="12.5" fill="#ddd" fill-opacity="0.07200000000000001"></circle><circle cx="210" cy="210" r="25" fill="none" stroke="#ddd" opacity="0.12400000000000001" stroke-width="10px"></circle><circle cx="210" cy="210" r="12.5" fill="#ddd" fill-opacity="0.03733333333333333"></circle><circle cx="270" cy="210" r="25" fill="none" stroke="#ddd" opacity="0.12400000000000001" stroke-width="10px"></circle><circle cx="270" cy="210" r="12.5" fill="#ddd" fill-opacity="0.10666666666666667"></circle><circle cx="330" cy="210" r="25" fill="none" stroke="#222" opacity="0.15" stroke-width="10px"></circle><circle cx="330" cy="210" r="12.5" fill="#222" fill-opacity="0.11533333333333334"></circle><circle cx="30" cy="270" r="25" fill="none" stroke="#222" opacity="0.15" stroke-width="10px"></circle><circle cx="30" cy="270" r="12.5" fill="#222" fill-opacity="0.06333333333333334"></circle><circle cx="90" cy="270" r="25" fill="none" stroke="#222" opacity="0.11533333333333334" stroke-width="10px"></circle><circle cx="90" cy="270" r="12.5" fill="#ddd" fill-opacity="0.08933333333333333"></circle><circle cx="150" cy="270" r="25" fill="none" stroke="#222" opacity="0.15" stroke-width="10px"></circle><circle cx="150" cy="270" r="12.5" fill="#ddd" fill-opacity="0.14133333333333334"></circle><circle cx="210" cy="270" r="25" fill="none" stroke="#ddd" opacity="0.08933333333333333" stroke-width="10px"></circle><circle cx="210" cy="270" r="12.5" fill="#ddd" fill-opacity="0.10666666666666667"></circle><circle cx="270" cy="270" r="25" fill="none" stroke="#ddd" opacity="0.07200000000000001" stroke-width="10px"></circle><circle cx="270" cy="270" r="12.5" fill="#ddd" fill-opacity="0.12400000000000001"></circle><circle cx="330" cy="270" r="25" fill="none" stroke="#222" opacity="0.098" stroke-width="10px"></circle><circle cx="330" cy="270" r="12.5" fill="#ddd" fill-opacity="0.08933333333333333"></circle><circle cx="30" cy="330" r="25" fill="none" stroke="#222" opacity="0.15" stroke-width="10px"></circle><circle cx="30" cy="330" r="12.5" fill="#ddd" fill-opacity="0.12400000000000001"></circle><circle cx="90" cy="330" r="25" fill="none" stroke="#222" opacity="0.046" stroke-width="10px"></circle><circle cx="90" cy="330" r="12.5" fill="#222" fill-opacity="0.098"></circle><circle cx="150" cy="330" r="25" fill="none" stroke="#ddd" opacity="0.08933333333333333" stroke-width="10px"></circle><circle cx="150" cy="330" r="12.5" fill="#222" fill-opacity="0.15"></circle><circle cx="210" cy="330" r="25" fill="none" stroke="#222" opacity="0.098" stroke-width="10px"></circle><circle cx="210" cy="330" r="12.5" fill="#222" fill-opacity="0.08066666666666666"></circle><circle cx="270" cy="330" r="25" fill="none" stroke="#222" opacity="0.06333333333333334" stroke-width="10px"></circle><circle cx="270" cy="330" r="12.5" fill="#222" fill-opacity="0.046"></circle><circle cx="330" cy="330" r="25" fill="none" stroke="#222" opacity="0.028666666666666667" stroke-width="10px"></circle><circle cx="330" cy="330" r="12.5" fill="#ddd" fill-opacity="0.02"></circle></svg>