<svg xmlns="http://www.w3.org/2000/svg" width="123" height="213"><rect x="0" y="0" width="100%" height="100%" fill="rgb(56,86,151)"></rect><polyline points="20.5,0,41,35.50704155516198,0,35.50704155516198,20.5,0" fill="#ddd" fill-opacity="0.07200000000000001" stroke="#000" stroke-opacity="0.02" transform="translate(-20.5,0) rotate(180,20.5,17.75352077758099)"></polyline><polyline points="20.5,0,41,35.50704155516198,0,35.50704155516198,20.5,0" fill="#ddd" fill-opacity="0.07200000000000001" stroke="#000" stroke-opacity="0.02" transform="translate(102.5,0) rotate(180,20.5,17.75352077758099)"></polyline><polyline points="20.5,0,41,35.50704155516198,0,35.50704155516198,20.5,0" fill="#222" fill-opacity="0.11533333333333334" stroke="#000" stroke-opacity="0.02" transform="translate(0,0) rotate(0,20.5,17.75352077758099)"></polyline><polyline points="20.5,0,41,35.50704155516198,0,35.50704155516198,20.5,0" fill="#ddd" fill-opacity="0.03733333333333333" stroke="#000" stroke-opacity="0.02" transform="translate(20.5,0) rotate(180,20.5,17.75352077758099)"></polyline><polyline points="20.5,0,41,35.50704155516198,0,35.50704155516198,20.5,0" fill="#222" fill-opacity="0.028666666666666667" stroke="#000" stroke-opacity="0.02" transform="translate(41,0) rotate(0,20.5,17.75352077758099)"></polyline><polyline points="20.5,0,41,35.50704155516198,0,35.50704155516198,20.5,0" fill="#ddd" fill-opacity="0.05466666666666667" stroke="#000" stroke-opacity="0.02" transform="translate(61.5,0) rotate(180,20.5,17.75352077758099)"></polyline><polyline points="20.5,0,41,35.50704155516198,0,35.50704155516198,20.5,0" fill="#ddd" fill-opacity="0.02" stroke="#000" stroke-opacity="0.02" transform="translate(82,0) rotate(0,20.5,17.75352077758099)"></polyline><polyline points="20.5,0,41,35.50704155516198,0,35.50704155516198,20.5,0" fill="#ddd" fill-opacity="0.05466666666666667" stroke="#000" stroke-opacity="0.02" transform="translate(-20.5,35.50704155516198) rotate(0,20.5,17.75352077758099)"></polyline><polyline points="20.5,0,41,35.50704155516198,0,35.50704155516198,20.5,0" fill="#ddd" fill-opacity="0.05466666666666667" stroke="#000" stroke-opacity="0.02" transform="translate(102.5,35.50704155516198) rotate(0,20.5,17.75352077758099)"></polyline><polyline points="20.5,0,41,35.50704155516198,0,35.50704155516198,20.5,0" fill="#ddd" fill-opacity="0.12400000000000001" stroke="#000" stroke-opacity="0.02" transform="translate(0,35.50704155516198) rotate(180,20.5,17.75352077758099)"></polyline><polyline points="20.5,0,41,35.50704155516198,0,35.50704155516198,20.5,0" fill="#ddd" fill-opacity="0.03733333333333333" stroke="#000" stroke-opacity="0.02" transform="translate(20.5,35.50704155516198) rotate(0,20.5,17.75352077758099)"></polyline><polyline points="20.5,0,41,35.50704155516198,0,35.50704155516198,20.5,0" fill="#222" fill-opacity="0.028666666666666667" stroke="#000" stroke-opacity="0.02" transform="translate(41,35.50704155516198) rotate(180,20.5,17.75352077758099)"></polyline><polyline points="20.5,0,41,35.50704155516198,0,35.50704155516198,20.5,0" fill="#222" fill-opacity="0.08066666666666666" stroke="#000" stroke-opacity="0.02" transform="translate(61.5,35.50704155516198) rotate(0,20.5,17.75352077758099)"></polyline><polyline points="20.5,0,41,35.50704155516198,0,35.50704155516198,20.5,0" fill="#222" fill-opacity="0.11533333333333334" stroke="#000" stroke-opacity="0.02" transform="translate(82,35.50704155516198) rotate(180,20.5,17.75352077758099)"></polyline><polyline points="20.5,0,41,35.50704155516198,0,35.50704155516198,20.5,0" fill="#ddd" fill-opacity="0.14133333333333334" stroke="#000" stroke-opacity="0.02" transform="translate(-20.5,71.01408311032397) rotate(180,20.5,17.75352077758099)"></polyline><polyline points="20.5,0,41,35.50704155516198,0,35.50704155516198,20.5,0" fill="#ddd" fill-opacity="0.14133333333333334" stroke="#000" stroke-opacity="0.02" transform="translate(102.5,71.01408311032397) rotate(180,20.5,17.75352077758099)"></polyline><polyline points="20.5,0,41,35.50704155516198,0,35.50704155516198,20.5,0" fill="#222" fill-opacity="0.11533333333333334" stroke="#000" stroke-opacity="0.02" transform="translate(0,71.01408311032397) rotate(0,20.5,17.75352077758099)"></polyline><polyline points="20.5,0,41,35.50704155516198,0,35.50704155516198,20.5,0" fill="#ddd" fill-opacity="0.07200000000000001" stroke="#000" stroke-opacity="0.02" transform="translate(20.5,71.01408311032397) rotate(180,20.5,17.75352077758099)"></polyline><polyline points="20.5,0,41,35.50704155516198,0,35.50704155516198,20.5,0" fill="#222" fill-opacity="0.046" stroke="#000" stroke-opacity="0.02" transform="translate(41,71.01408311032397) rotate(0,20.5,17.75352077758099)"></polyline><polyline points="20.5,0,41,35.50704155516198,0,35.50704155516198,20.5,0" fill="#222" fill-opacity="0.028666666666666667" stroke="#000" stroke-opacity="0.02" transform="translate(61.5,71.01408311032397) rotate(180,20.5,17.75352077758099)"></polyline><polyline points="20.5,0,41,35.50704155516198,0,35.50704155516198,20.5,0" fill="#ddd" fill-opacity="0.05466666666666667" stroke="#000" stroke-opacity="0.02" transform="translate(82,71.01408311032397) rotate(0,20.5,17.75352077758099)"></polyline><polyline points="20.5,0,41,35.50704155516198,0,35.50704155516198,20.5,0" fill="#ddd" fill-opacity="0.10666666666666667" stroke="#000" stroke-opacity="0.02" transform="translate(-20.5,106.52112466548596) rotate(0,20.5,17.75352077758099)"></polyline><polyline points="20.5,0,41,35.50704155516198,0,35.50704155516198,20.5,0" fill="#ddd" fill-opacity="0.10666666666666667" stroke="#000" stroke-opacity="0.02" transform="translate(102.5,106.52112466548596) rotate(0,20.5,17.75352077758099)"></polyline><polyline points="20.5,0,41,35.50704155516198,0,35.50704155516198,20.5,0" fill="#222" fill-opacity="0.08066666666666666" stroke="#000" stroke-opacity="0.02" transform="translate(0,106.52112466548596) rotate(180,20.5,17.75352077758099)"></polyline><polyline points="20.5,0,41,35.50704155516198,0,35.50704155516198,20.5,0" fill="#222" fill-opacity="0.11533333333333334" stroke="#000" stroke-opacity="0.02" transform="translate(20.5,106.52112466548596) rotate(0,20.5,17.75352077758099)"></polyline><polyline points="20.5,0,41,35.50704155516198,0,35.50704155516198,20.5,0" fill="#ddd" fill-opacity="0.07200000000000001" stroke="#000" stroke-opacity="0.02" transform="translate(41,106.52112466548596) rotate(180,20.5,17.75352077758099)"></polyline><polyline points="20.5,0,41,35.50704155516198,0,35.50704155516198,20.5,0" fill="#ddd" fill-opacity="0.12400000000000001" stroke="#000" stroke-opacity="0.02" transform="translate(61.5,106.52112466548596) rotate(0,20.5,17.75352077758099)"></polyline><polyline points="20.5,0,41,35.50704155516198,0,35.50704155516198,20.5,0" fill="#222" fill-opacity="0.098" stroke="#000" stroke-opacity="0.02" transform="translate(82,106.52112466548596) rotate(180,20.5,17.75352077758099)"></polyline><polyline points="20.5,0,41,35.50704155516198,0,35.50704155516198,20.5,0" fill="#222" fill-opacity="0.08066666666666666" stroke="#000" stroke-opacity="0.02" transform="translate(-20.5,142.02816622064793) rotate(180,20.5,17.75352077758099)"></polyline><polyline points="20.5,0,41,35.50704155516198,0,35.50704155516198,20.5,0" fill="#222" fill-opacity="0.08066666666666666" stroke="#000" stroke-opacity="0.02" transform="translate(102.5,142.02816622064793) rotate(180,20.5,17.75352077758099)"></polyline><polyline points="20.5,0,41,35.50704155516198,0,35.50704155516198,20.5,0" fill="#222" fill-opacity="0.06333333333333334" stroke="#000" stroke-opacity="0.02" transform="translate(0,142.02816622064793) rotate(0,20.5,17.75352077758099)"></polyline><polyline points="20.5,0,41,35.50704155516198,0,35.50704155516198,20.5,0" fill="#ddd" fill-opacity="0.14133333333333334" stroke="#000" stroke-opacity="0.02" transform="translate(20.5,142.02816622064793) rotate(180,20.5,17.75352077758099)"></polyline><polyline points="20.5,0,41,35.50704155516198,0,35.50704155516198,20.5,0" fill="#222" fill-opacity="0.15" stroke="#000" stroke-opacity="0.02" transform="translate(41,142.02816622064793) rotate(0,20.5,17.75352077758099)"></polyline><polyline points="20.5,0,41,35.50704155516198,0,35.50704155516198,20.5,0" fill="#222" fill-opacity="0.15" stroke="#000" stroke-opacity="0.02" transform="translate(61.5,142.02816622064793) rotate(180,20.5,17.75352077758099)"></polyline><polyline points="20.5,0,41,35.50704155516198,0,35.50704155516198,20.5,0" fill="#222" fill-opacity="0.08066666666666666" stroke="#000" stroke-opacity="0.02" transform="translate(82,142.02816622064793) rotate(0,20.5,17.75352077758099)"></polyline><polyline points="20.5,0,41,35.50704155516198,0,35.50704155516198,20.5,0" fill="#ddd" fill-opacity="0.12400000000000001" stroke="#000" stroke-opacity="0.02" transform="translate(-20.5,177.5352077758099) rotate(0,20.5,17.75352077758099)"></polyline><polyline points="20.5,0,41,35.50704155516198,0,35.50704155516198,20.5,0" fill="#ddd" fill-opacity="0.12400000000000001" stroke="#000" stroke-opacity="0.02" transform="translate(102.5,177.5352077758099) rotate(0,20.5,17.75352077758099)"></polyline><polyline points="20.5,0,41,35.50704155516198,0,35.50704155516198,20.5,0" fill="#ddd" fill-opacity="0.08933333333333333" stroke="#000" stroke-opacity="0.02" transform="translate(0,177.5352077758099) rotate(180,20.5,17.75352077758099)"></polyline><polyline points="20.5,0,41,35.50704155516198,0,35.50704155516198,20.5,0" fill="#ddd" fill-opacity="0.07200000000000001" stroke="#000" stroke-opacity="0.02" transform="translate(20.5,177.5352077758099) rotate(0,20.5,17.75352077758099)"></polyline><polyline points="20.5,0,41,35.50704155516198,0,35.50704155516198,20.5,0" fill="#ddd" fill-opacity="0.14133333333333334" stroke="#000" stroke-opacity="0.02" transform="translate(41,177.5352077758099) rotate(180,20.5,17.75352077758099)"></polyline><polyline points="20.5,0,41,35.50704155516198,0,35.50704155516198,20.5,0" fill="#222" fill-opacity="0.13266666666666665" stroke="#000" stroke-opacity="0.02" transform="translate(61.5,177.5352077758099) rotate(0,20.5,17.75352077758099)"></polyline><polyline points="20.5,0,41,35.50704155516198,0,35.50704155516198,20.5,0" fill="#ddd" fill-opacity="0.03733333333333333" stroke="#000" stroke-opacity="0.02" transform="translate(82,177.5352077758099) rotate(180,20.5,17.75352077758099)"></polyline></svg>